<svg xmlns="http://www.w3.org/2000/svg" xmlns:xlink="http://www.w3.org/1999/xlink" contentStyleType="text/css" data-diagram-type="SEQUENCE" height="674px" preserveAspectRatio="none" style="width:893px;height:674px;background:#FFFFFF;" version="1.1" viewBox="0 0 893 674" width="893px" zoomAndPan="magnify"><title>&#128216; BookLibrary API - Sequence Diagram (Create Book)</title><defs/><g><text fill="#000000" font-family="sans-serif" font-size="14" font-weight="bold" lengthAdjust="spacing" textLength="417.9492" x="239.1462" y="27.9951">&#128216; BookLibrary API - Sequence Diagram (Create Book)</text><g><title>BookController</title><rect fill="#FFFFFF" height="410.6641" style="stroke:#181818;stroke-width:1;" width="10" x="175.8223" y="164.8594"/></g><g><title>BookServiceImpl</title><rect fill="#FFFFFF" height="169.7969" style="stroke:#181818;stroke-width:1;" width="10" x="409.7163" y="193.9922"/></g><g><title>BookMapper</title><rect fill="#FFFFFF" height="29.1328" style="stroke:#181818;stroke-width:1;" width="10" x="619.1504" y="223.125"/></g><g><title>BookMapper</title><rect fill="#FFFFFF" height="29.1328" style="stroke:#181818;stroke-width:1;" width="10" x="619.1504" y="465.9922"/></g><g><title>BookRepository</title><rect fill="#FFFFFF" height="29.1328" style="stroke:#181818;stroke-width:1;" width="10" x="741.9297" y="281.3906"/></g><g><title>BookRepository</title><rect fill="#FFFFFF" height="29.1328" style="stroke:#181818;stroke-width:1;" width="10" x="741.9297" y="407.7266"/></g><rect fill="none" height="206.7344" style="stroke:#000000;stroke-width:1.5;" width="707.0728" x="111.8145" y="325.5234"/><g><title>Client</title><rect fill="#000000" fill-opacity="0.00000" height="474.9297" width="8" x="24.2651" y="118.5938"/><line style="stroke:#181818;stroke-width:0.5;stroke-dasharray:5.0,5.0;" x1="28" x2="28" y1="118.5938" y2="593.5234"/></g><g><title>BookController</title><rect fill="#000000" fill-opacity="0.00000" height="474.9297" width="8" x="176.8223" y="118.5938"/><line style="stroke:#181818;stroke-width:0.5;stroke-dasharray:5.0,5.0;" x1="180.8145" x2="180.8145" y1="118.5938" y2="593.5234"/></g><g><title>BookServiceImpl</title><rect fill="#000000" fill-opacity="0.00000" height="474.9297" width="8" x="410.7163" y="118.5938"/><line style="stroke:#181818;stroke-width:0.5;stroke-dasharray:5.0,5.0;" x1="414.1528" x2="414.1528" y1="118.5938" y2="593.5234"/></g><g><title>BookMapper</title><rect fill="#000000" fill-opacity="0.00000" height="474.9297" width="8" x="620.1504" y="118.5938"/><line style="stroke:#181818;stroke-width:0.5;stroke-dasharray:5.0,5.0;" x1="623.3286" x2="623.3286" y1="118.5938" y2="593.5234"/></g><g><title>BookRepository</title><rect fill="#000000" fill-opacity="0.00000" height="474.9297" width="8" x="742.9297" y="118.5938"/><line style="stroke:#181818;stroke-width:0.5;stroke-dasharray:5.0,5.0;" x1="745.9722" x2="745.9722" y1="118.5938" y2="593.5234"/></g><g><title>MongoDB</title><rect fill="#000000" fill-opacity="0.00000" height="474.9297" width="8" x="851.5645" y="118.5938"/><line style="stroke:#181818;stroke-width:0.5;stroke-dasharray:5.0,5.0;" x1="854.8872" x2="854.8872" y1="118.5938" y2="593.5234"/></g><g class="participant participant-head" data-participant="Client"><text fill="#000000" font-family="sans-serif" font-size="14" lengthAdjust="spacing" textLength="40.5303" x="5" y="115.292">Client</text><ellipse cx="28.2651" cy="50.7969" fill="#E2E2F0" rx="8" ry="8" style="stroke:#181818;stroke-width:0.5;"/><path d="M28.2651,58.7969 L28.2651,85.7969 M15.2651,66.7969 L41.2651,66.7969 M28.2651,85.7969 L15.2651,100.7969 M28.2651,85.7969 L41.2651,100.7969" fill="none" style="stroke:#181818;stroke-width:0.5;"/></g><g class="participant participant-tail" data-participant="Client"><text fill="#000000" font-family="sans-serif" font-size="14" lengthAdjust="spacing" textLength="40.5303" x="5" y="605.5186">Client</text><ellipse cx="28.2651" cy="617.3203" fill="#E2E2F0" rx="8" ry="8" style="stroke:#181818;stroke-width:0.5;"/><path d="M28.2651,625.3203 L28.2651,652.3203 M15.2651,633.3203 L41.2651,633.3203 M28.2651,652.3203 L15.2651,667.3203 M28.2651,652.3203 L41.2651,667.3203" fill="none" style="stroke:#181818;stroke-width:0.5;"/></g><g class="participant participant-head" data-participant="Controller"><rect fill="#E2E2F0" height="30.2969" rx="2.5" ry="2.5" style="stroke:#181818;stroke-width:0.5;" width="118.0156" x="121.8145" y="87.2969"/><text fill="#000000" font-family="sans-serif" font-size="14" lengthAdjust="spacing" textLength="104.0156" x="128.8145" y="107.292">BookController</text></g><g class="participant participant-tail" data-participant="Controller"><rect fill="#E2E2F0" height="30.2969" rx="2.5" ry="2.5" style="stroke:#181818;stroke-width:0.5;" width="118.0156" x="121.8145" y="592.5234"/><text fill="#000000" font-family="sans-serif" font-size="14" lengthAdjust="spacing" textLength="104.0156" x="128.8145" y="612.5186">BookController</text></g><g class="participant participant-head" data-participant="Service"><rect fill="#E2E2F0" height="30.2969" rx="2.5" ry="2.5" style="stroke:#181818;stroke-width:0.5;" width="131.127" x="349.1528" y="87.2969"/><text fill="#000000" font-family="sans-serif" font-size="14" lengthAdjust="spacing" textLength="117.127" x="356.1528" y="107.292">BookServiceImpl</text></g><g class="participant participant-tail" data-participant="Service"><rect fill="#E2E2F0" height="30.2969" rx="2.5" ry="2.5" style="stroke:#181818;stroke-width:0.5;" width="131.127" x="349.1528" y="592.5234"/><text fill="#000000" font-family="sans-serif" font-size="14" lengthAdjust="spacing" textLength="117.127" x="356.1528" y="612.5186">BookServiceImpl</text></g><g class="participant participant-head" data-participant="Mapper"><rect fill="#E2E2F0" height="30.2969" rx="2.5" ry="2.5" style="stroke:#181818;stroke-width:0.5;" width="101.6436" x="573.3286" y="87.2969"/><text fill="#000000" font-family="sans-serif" font-size="14" lengthAdjust="spacing" textLength="87.6436" x="580.3286" y="107.292">BookMapper</text></g><g class="participant participant-tail" data-participant="Mapper"><rect fill="#E2E2F0" height="30.2969" rx="2.5" ry="2.5" style="stroke:#181818;stroke-width:0.5;" width="101.6436" x="573.3286" y="592.5234"/><text fill="#000000" font-family="sans-serif" font-size="14" lengthAdjust="spacing" textLength="87.6436" x="580.3286" y="612.5186">BookMapper</text></g><g class="participant participant-head" data-participant="Repository"><rect fill="#E2E2F0" height="30.2969" rx="2.5" ry="2.5" style="stroke:#181818;stroke-width:0.5;" width="123.915" x="684.9722" y="87.2969"/><text fill="#000000" font-family="sans-serif" font-size="14" lengthAdjust="spacing" textLength="109.915" x="691.9722" y="107.292">BookRepository</text></g><g class="participant participant-tail" data-participant="Repository"><rect fill="#E2E2F0" height="30.2969" rx="2.5" ry="2.5" style="stroke:#181818;stroke-width:0.5;" width="123.915" x="684.9722" y="592.5234"/><text fill="#000000" font-family="sans-serif" font-size="14" lengthAdjust="spacing" textLength="109.915" x="691.9722" y="612.5186">BookRepository</text></g><g class="participant participant-head" data-participant="DB"><text fill="#000000" font-family="sans-serif" font-size="14" lengthAdjust="spacing" textLength="67.3545" x="818.8872" y="115.292">MongoDB</text><path d="M837.5645,66.2969 C837.5645,56.2969 855.5645,56.2969 855.5645,56.2969 C855.5645,56.2969 873.5645,56.2969 873.5645,66.2969 L873.5645,92.2969 C873.5645,102.2969 855.5645,102.2969 855.5645,102.2969 C855.5645,102.2969 837.5645,102.2969 837.5645,92.2969 L837.5645,66.2969" fill="#E2E2F0" style="stroke:#181818;stroke-width:1.5;"/><path d="M837.5645,66.2969 C837.5645,76.2969 855.5645,76.2969 855.5645,76.2969 C855.5645,76.2969 873.5645,76.2969 873.5645,66.2969" fill="none" style="stroke:#181818;stroke-width:1.5;"/></g><g class="participant participant-tail" data-participant="DB"><text fill="#000000" font-family="sans-serif" font-size="14" lengthAdjust="spacing" textLength="67.3545" x="818.8872" y="605.5186">MongoDB</text><path d="M837.5645,618.8203 C837.5645,608.8203 855.5645,608.8203 855.5645,608.8203 C855.5645,608.8203 873.5645,608.8203 873.5645,618.8203 L873.5645,644.8203 C873.5645,654.8203 855.5645,654.8203 855.5645,654.8203 C855.5645,654.8203 837.5645,654.8203 837.5645,644.8203 L837.5645,618.8203" fill="#E2E2F0" style="stroke:#181818;stroke-width:1.5;"/><path d="M837.5645,618.8203 C837.5645,628.8203 855.5645,628.8203 855.5645,628.8203 C855.5645,628.8203 873.5645,628.8203 873.5645,618.8203" fill="none" style="stroke:#181818;stroke-width:1.5;"/></g><g><title>BookController</title><rect fill="#FFFFFF" height="410.6641" style="stroke:#181818;stroke-width:1;" width="10" x="175.8223" y="164.8594"/></g><g><title>BookServiceImpl</title><rect fill="#FFFFFF" height="169.7969" style="stroke:#181818;stroke-width:1;" width="10" x="409.7163" y="193.9922"/></g><g><title>BookMapper</title><rect fill="#FFFFFF" height="29.1328" style="stroke:#181818;stroke-width:1;" width="10" x="619.1504" y="223.125"/></g><g><title>BookMapper</title><rect fill="#FFFFFF" height="29.1328" style="stroke:#181818;stroke-width:1;" width="10" x="619.1504" y="465.9922"/></g><g><title>BookRepository</title><rect fill="#FFFFFF" height="29.1328" style="stroke:#181818;stroke-width:1;" width="10" x="741.9297" y="281.3906"/></g><g><title>BookRepository</title><rect fill="#FFFFFF" height="29.1328" style="stroke:#181818;stroke-width:1;" width="10" x="741.9297" y="407.7266"/></g><g class="message" data-participant-1="Client" data-participant-2="Controller"><polygon fill="#181818" points="163.8223,160.8594,173.8223,164.8594,163.8223,168.8594,167.8223,164.8594" style="stroke:#181818;stroke-width:1;"/><line style="stroke:#181818;stroke-width:1;" x1="28.2651" x2="169.8223" y1="164.8594" y2="164.8594"/><text fill="#000000" font-family="sans-serif" font-size="13" lengthAdjust="spacing" textLength="105.4473" x="35.2651" y="144.6606">POST /api/books</text><text fill="#000000" font-family="sans-serif" font-size="13" lengthAdjust="spacing" textLength="124.0713" x="35.2651" y="159.7935">(BookRequestDTO)</text></g><g class="message" data-participant-1="Controller" data-participant-2="Service"><polygon fill="#181818" points="397.7163,189.9922,407.7163,193.9922,397.7163,197.9922,401.7163,193.9922" style="stroke:#181818;stroke-width:1;"/><line style="stroke:#181818;stroke-width:1;" x1="185.8223" x2="403.7163" y1="193.9922" y2="193.9922"/><text fill="#000000" font-family="sans-serif" font-size="13" lengthAdjust="spacing" textLength="197.3105" x="192.8223" y="188.9263">createBook(bookRequestDTO)</text></g><g class="message" data-participant-1="Service" data-participant-2="Mapper"><polygon fill="#181818" points="607.1504,219.125,617.1504,223.125,607.1504,227.125,611.1504,223.125" style="stroke:#181818;stroke-width:1;"/><line style="stroke:#181818;stroke-width:1;" x1="419.7163" x2="613.1504" y1="223.125" y2="223.125"/><text fill="#000000" font-family="sans-serif" font-size="13" lengthAdjust="spacing" textLength="174.4082" x="426.7163" y="218.0591">toEntity(bookRequestDTO)</text></g><g class="message" data-participant-1="Mapper" data-participant-2="Service"><polygon fill="#181818" points="430.7163,248.2578,420.7163,252.2578,430.7163,256.2578,426.7163,252.2578" style="stroke:#181818;stroke-width:1;"/><line style="stroke:#181818;stroke-width:1;stroke-dasharray:2.0,2.0;" x1="424.7163" x2="623.1504" y1="252.2578" y2="252.2578"/><text fill="#000000" font-family="sans-serif" font-size="13" lengthAdjust="spacing" textLength="74.2231" x="436.7163" y="247.1919">Book entity</text></g><g class="message" data-participant-1="Service" data-participant-2="Repository"><polygon fill="#181818" points="729.9297,277.3906,739.9297,281.3906,729.9297,285.3906,733.9297,281.3906" style="stroke:#181818;stroke-width:1;"/><line style="stroke:#181818;stroke-width:1;" x1="419.7163" x2="735.9297" y1="281.3906" y2="281.3906"/><text fill="#000000" font-family="sans-serif" font-size="13" lengthAdjust="spacing" textLength="147.2783" x="426.7163" y="276.3247">findByIsbn(entity.isbn)</text></g><g class="message" data-participant-1="Repository" data-participant-2="Service"><polygon fill="#181818" points="430.7163,306.5234,420.7163,310.5234,430.7163,314.5234,426.7163,310.5234" style="stroke:#181818;stroke-width:1;"/><line style="stroke:#181818;stroke-width:1;stroke-dasharray:2.0,2.0;" x1="424.7163" x2="745.9297" y1="310.5234" y2="310.5234"/><text fill="#000000" font-family="sans-serif" font-size="13" lengthAdjust="spacing" textLength="109.1035" x="436.7163" y="305.4575">Optional&lt;Book&gt;</text></g><path d="M111.8145,325.5234 L176.2573,325.5234 L176.2573,332.6563 L166.2573,342.6563 L111.8145,342.6563 L111.8145,325.5234" fill="#EEEEEE" style="stroke:#000000;stroke-width:1.5;"/><rect fill="none" height="206.7344" style="stroke:#000000;stroke-width:1.5;" width="707.0728" x="111.8145" y="325.5234"/><text fill="#000000" font-family="sans-serif" font-size="13" font-weight="bold" lengthAdjust="spacing" textLength="19.4429" x="126.8145" y="338.5903">alt</text><text fill="#000000" font-family="sans-serif" font-size="11" font-weight="bold" lengthAdjust="spacing" textLength="81.3774" x="191.2573" y="337.7339">[Book exists]</text><g class="message" data-participant-1="Service" data-participant-2="Controller"><polygon fill="#181818" points="196.8223,359.7891,186.8223,363.7891,196.8223,367.7891,192.8223,363.7891" style="stroke:#181818;stroke-width:1;"/><line style="stroke:#181818;stroke-width:1;stroke-dasharray:2.0,2.0;" x1="190.8223" x2="413.7163" y1="363.7891" y2="363.7891"/><text fill="#000000" font-family="sans-serif" font-size="13" lengthAdjust="spacing" textLength="199.894" x="202.8223" y="358.7231">throw DuplicateBookException</text></g><line style="stroke:#000000;stroke-width:1;stroke-dasharray:2.0,2.0;" x1="111.8145" x2="818.8872" y1="372.7891" y2="372.7891"/><text fill="#000000" font-family="sans-serif" font-size="11" font-weight="bold" lengthAdjust="spacing" textLength="71.5269" x="116.8145" y="382.9995">[New Book]</text><g class="message" data-participant-1="Service" data-participant-2="Repository"><polygon fill="#181818" points="729.9297,403.7266,739.9297,407.7266,729.9297,411.7266,733.9297,407.7266" style="stroke:#181818;stroke-width:1;"/><line style="stroke:#181818;stroke-width:1;" x1="414.7163" x2="735.9297" y1="407.7266" y2="407.7266"/><text fill="#000000" font-family="sans-serif" font-size="13" lengthAdjust="spacing" textLength="78.311" x="421.7163" y="402.6606">save(entity)</text></g><g class="message" data-participant-1="Repository" data-participant-2="Service"><polygon fill="#181818" points="425.7163,432.8594,415.7163,436.8594,425.7163,440.8594,421.7163,436.8594" style="stroke:#181818;stroke-width:1;"/><line style="stroke:#181818;stroke-width:1;stroke-dasharray:2.0,2.0;" x1="419.7163" x2="745.9297" y1="436.8594" y2="436.8594"/><text fill="#000000" font-family="sans-serif" font-size="13" lengthAdjust="spacing" textLength="75.1689" x="431.7163" y="431.7935">saved Book</text></g><g class="message" data-participant-1="Service" data-participant-2="Mapper"><polygon fill="#181818" points="607.1504,461.9922,617.1504,465.9922,607.1504,469.9922,611.1504,465.9922" style="stroke:#181818;stroke-width:1;"/><line style="stroke:#181818;stroke-width:1;" x1="414.7163" x2="613.1504" y1="465.9922" y2="465.9922"/><text fill="#000000" font-family="sans-serif" font-size="13" lengthAdjust="spacing" textLength="185.4341" x="421.7163" y="460.9263">toResponseDTO(savedBook)</text></g><g class="message" data-participant-1="Mapper" data-participant-2="Service"><polygon fill="#181818" points="425.7163,491.125,415.7163,495.125,425.7163,499.125,421.7163,495.125" style="stroke:#181818;stroke-width:1;"/><line style="stroke:#181818;stroke-width:1;stroke-dasharray:2.0,2.0;" x1="419.7163" x2="623.1504" y1="495.125" y2="495.125"/><text fill="#000000" font-family="sans-serif" font-size="13" lengthAdjust="spacing" textLength="123.5571" x="431.7163" y="490.0591">BookResponseDTO</text></g><g class="message" data-participant-1="Service" data-participant-2="Controller"><polygon fill="#181818" points="196.8223,520.2578,186.8223,524.2578,196.8223,528.2578,192.8223,524.2578" style="stroke:#181818;stroke-width:1;"/><line style="stroke:#181818;stroke-width:1;stroke-dasharray:2.0,2.0;" x1="190.8223" x2="413.7163" y1="524.2578" y2="524.2578"/><text fill="#000000" font-family="sans-serif" font-size="13" lengthAdjust="spacing" textLength="123.5571" x="202.8223" y="519.1919">BookResponseDTO</text></g><g class="message" data-participant-1="Controller" data-participant-2="Client"><polygon fill="#181818" points="39.2651,571.5234,29.2651,575.5234,39.2651,579.5234,35.2651,575.5234" style="stroke:#181818;stroke-width:1;"/><line style="stroke:#181818;stroke-width:1;stroke-dasharray:2.0,2.0;" x1="33.2651" x2="179.8223" y1="575.5234" y2="575.5234"/><text fill="#000000" font-family="sans-serif" font-size="13" lengthAdjust="spacing" textLength="118.3076" x="45.2651" y="555.3247">HTTP 201 Created</text><text fill="#000000" font-family="sans-serif" font-size="13" lengthAdjust="spacing" textLength="123.5571" x="45.2651" y="570.4575">BookResponseDTO</text></g><!--SRC=[XLH1Rjim4Bpp5GkVv8ERD4UX251R0MAWgOtOnrmeQPCGOKY6t3ZnEthfhL_C4o9Ij4N9LQkBbiBipCwi918a4Jx-_FeDSwsVVeZIShk7x-ibp623Bw-eAeH2y0VBdo5RMEI40JfbZ5UaBIoaG4NCS4kY4eOhWea7BBGYgwL4Em7ke3kUGZTeTwB2vREH0HlFfy0RRapaQyjJo2qQxKGps3x0kYEhEV6IEuJ9ZLOFkfW7G35dhBK0iyjaoXpMgyqMphWHPsN3w-vKrl8teJWgjgkf3q3iV229ETRLdZ1QoQ4AqNc6h1oZEVXciV04hSySI5yf4hGVxuw9j3UOfU9U5Z3qing77QbSbrSEzqBLy_tIbIfhUx-8fauKat2xig-yCYIqulAR7-4o5K-Q6PSKPtmNZXo3vZeEDLWBFLhz1iMhaQAAYLwzLnXqGcEYSGWKPRFsd_WMHFhiVSkExp2QdGRStyRrpyVyUeAwandnEvYWs_4jEgELmsQpMQ1gFxNU975h_jdOhXEQuHY7dVyhulzG75DLTVzrzpJXKyhXUhjTmyNvLsX_6VMT6f8cX1t79m00]--></g></svg>